HIERARCHY
ROOT Hips
{
 OFFSET 0.000000 0.000000 0.000000
 CHANNELS 6 Xposition Yposition Zposition Yrotation Xrotation Zrotation
 JOINT Chest
 {
  OFFSET 0.000000 9.585900 0.002600
  CHANNELS 3 Yrotation Xrotation Zrotation
  JOINT Chest2
  {
   OFFSET 0.000000 9.601200 -0.005300
   CHANNELS 3 Yrotation Xrotation Zrotation
   JOINT Chest3
   {
    OFFSET 0.000000 9.561800 0.000000
    CHANNELS 3 Yrotation Xrotation Zrotation
    JOINT Chest4
    {
     OFFSET 0.000000 9.552100 0.000000
     CHANNELS 3 Yrotation Xrotation Zrotation
     JOINT Neck
     {
      OFFSET 0.000000 14.453000 0.000000
      CHANNELS 3 Yrotation Xrotation Zrotation
      JOINT Head
      {
       OFFSET 0.000000 8.936500 -0.011300
       CHANNELS 3 Yrotation Xrotation Zrotation
       End Site
       {
        OFFSET 0.000000 17.073600 -0.006000
       }
      }
     }
     JOINT RightCollar
     {
      OFFSET -2.921100 9.558500 0.000000
      CHANNELS 3 Yrotation Xrotation Zrotation
      JOINT RightShoulder
      {
       OFFSET -13.519700 0.000000 0.000000
       CHANNELS 3 Yrotation Xrotation Zrotation
       JOINT RightElbow
       {
        OFFSET 0.000000 -29.696600 0.000000
        CHANNELS 3 Yrotation Xrotation Zrotation
        JOINT RightWrist
        {
         OFFSET 0.000000 -24.004700 0.000000
         CHANNELS 3 Yrotation Xrotation Zrotation
         End Site
         {
          OFFSET 0.000000 -17.728500 0.000000
         }
        }
       }
      }
     }
     JOINT LeftCollar
     {
      OFFSET 2.921100 9.558500 0.000000
      CHANNELS 3 Yrotation Xrotation Zrotation
      JOINT LeftShoulder
      {
       OFFSET 13.519700 0.000000 0.000000
       CHANNELS 3 Yrotation Xrotation Zrotation
       JOINT LeftElbow
       {
        OFFSET 0.000000 -29.696600 0.000000
        CHANNELS 3 Yrotation Xrotation Zrotation
        JOINT LeftWrist
        {
         OFFSET 0.000000 -24.004700 0.000000
         CHANNELS 3 Yrotation Xrotation Zrotation
         End Site
         {
          OFFSET 0.000000 -17.728500 0.000000
         }
        }
       }
      }
     }
    }
   }
  }
 }
 JOINT RightHip
 {
  OFFSET -7.771700 -0.012900 -0.001300
  CHANNELS 3 Yrotation Xrotation Zrotation
  JOINT RightKnee
  {
   OFFSET 0.000000 -40.869800 0.001200
   CHANNELS 3 Yrotation Xrotation Zrotation
   JOINT RightAnkle
   {
    OFFSET 0.000000 -39.717900 0.002100
    CHANNELS 3 Yrotation Xrotation Zrotation
    JOINT RightToe
    {
     OFFSET 0.000000 -4.965400 11.033500
     CHANNELS 3 Yrotation Xrotation Zrotation
     End Site
     {
      OFFSET 0.000000 -1.423100 5.872300
     }
    }
   }
  }
 }
 JOINT LeftHip
 {
  OFFSET 7.771700 -0.012900 -0.001300
  CHANNELS 3 Yrotation Xrotation Zrotation
  JOINT LeftKnee
  {
   OFFSET 0.000000 -40.869800 0.001200
   CHANNELS 3 Yrotation Xrotation Zrotation
   JOINT LeftAnkle
   {
    OFFSET 0.000000 -39.717900 0.002100
    CHANNELS 3 Yrotation Xrotation Zrotation
    JOINT LeftToe
    {
     OFFSET 0.000000 -4.965400 11.033500
     CHANNELS 3 Yrotation Xrotation Zrotation
     End Site
     {
      OFFSET 0.000000 -1.423100 5.872300
     }
    }
   }
  }
 }
}
MOTION
Frames: 8
Frame Time: 0.008333
0.000000 85.388000 0.000000 0.000000 -5.767877 0.000000 0.000000 11.653817 0.000000 0.000000 -5.885947 0.000000 0.000000 -0.000000 0.000000 0.000000 -0.000000 0.000000 0.000000 12.528835 0.000000 0.000000 0.711642 0.000000 0.000000 -0.000000 0.000000 0.000000 0.000000 -90.000000 0.000000 -2.309062 0.000000 0.000000 2.309062 0.000000 0.000000 -0.000000 0.000000 0.000000 -0.000000 90.000000 0.000000 -2.309062 0.000000 0.000000 2.309062 0.000000 0.000000 8.520406 0.000000 0.000000 1.905762 0.000000 -0.000000 -4.658285 0.000000 0.000000 -0.000000 0.000000 0.000000 8.520406 0.000000 0.000000 1.905762 0.000000 -0.000000 -4.658285 0.000000 0.000000 -0.000000 0.000000
-220.258518 57.315963 134.743702 -174.499239 -29.911806 -1.871675 1.076079 21.197245 2.168701 0.060339 2.820028 0.272732 0.105451 4.599005 0.446857 0.643065 18.100195 1.858540 1.742990 12.215998 5.966687 0.837147 -13.021823 10.646331 3.848913 0.292685 -2.105832 13.812652 -27.174812 -16.362116 -178.821512 -61.797547 -154.393063 13.403051 -18.525763 -56.439129 -7.937651 -3.974695 -3.258624 0.831409 -24.564898 -2.930141 169.787471 -70.210865 163.779267 -9.746629 -17.055796 38.098110 5.884262 -45.010494 -8.036912 -12.824019 70.465623 -20.387706 4.294060 20.786154 8.518380 -0.762220 -16.011584 6.909061 -12.494650 -44.780077 -0.256077 30.287943 69.641599 29.098871 -14.855942 5.939575 -4.069946 -0.114335 0.212672 -0.045173
-220.268171 57.328932 134.736230 -174.522647 -29.907018 -1.856467 1.109524 21.311527 2.137800 0.067795 2.839021 0.274311 0.117649 4.628306 0.449479 0.691672 18.148169 1.868580 1.581851 12.202565 6.165668 0.447418 -13.023417 11.093267 3.687110 0.238379 -2.087081 13.152983 -26.999558 -15.913538 -174.202618 -63.732084 -158.014369 13.501574 -18.499647 -56.684791 -7.934834 -3.974935 -3.189316 1.121998 -24.344318 -3.131232 167.586570 -72.883766 165.354181 -9.510625 -16.805833 38.059025 5.792006 -44.999844 -8.021671 -12.652679 70.434369 -20.229185 4.296250 20.795806 8.496975 -0.766019 -16.031684 6.878924 -12.264497 -44.762249 -0.463046 30.247989 69.600793 29.237594 -14.831878 5.908584 -4.074742 -0.138477 0.222414 -0.060181
-220.271845 57.341260 134.732237 -174.560437 -29.863018 -1.875606 1.168850 21.386894 2.155376 0.074630 2.858308 0.276301 0.128866 4.658034 0.452744 0.736248 18.196575 1.880568 1.399872 12.186632 6.360112 0.019848 -13.026203 11.540375 3.528566 0.157417 -2.085313 12.543498 -26.829788 -15.475540 -168.701331 -65.735573 -162.434829 13.713280 -18.480884 -57.067430 -7.944727 -3.997768 -3.130130 1.318240 -24.111009 -3.334765 166.003952 -75.645907 166.440954 -9.247018 -16.603933 38.019718 5.695128 -45.037645 -7.954542 -12.541905 70.404920 -20.118492 4.305814 20.806907 8.448894 -0.776240 -16.053016 6.875900 -12.146821 -44.782629 -0.526786 30.229714 69.581484 29.338935 -14.821717 5.875668 -4.086098 -0.147827 0.228459 -0.066045
-220.278679 57.355057 134.727666 -174.599604 -29.813884 -1.881358 1.218616 21.458021 2.161668 0.080387 2.877723 0.278663 0.138407 4.687946 0.456566 0.773846 18.245130 1.893916 1.201340 12.170441 6.550307 -0.437435 -13.026168 11.986483 3.379131 0.048771 -2.102208 12.034312 -26.657263 -15.064751 -162.247264 -67.725577 -167.832100 13.986772 -18.445638 -57.514464 -7.956539 -4.044140 -3.080746 1.392310 -23.860361 -3.540457 165.669687 -78.456875 166.427684 -8.973672 -16.475632 37.976197 5.666576 -45.082081 -7.918220 -12.500756 70.386635 -20.071881 4.293070 20.831935 8.425488 -0.784745 -16.108127 6.873655 -12.011528 -44.808239 -0.612157 30.213998 69.561077 29.439813 -14.806401 5.836779 -4.086458 -0.167193 0.239503 -0.075134
-220.285904 57.371464 134.719457 -174.641870 -29.780731 -1.888932 1.260654 21.543645 2.171363 0.084454 2.897075 0.281369 0.145068 4.717804 0.460858 0.800217 18.293496 1.907750 0.991012 12.157725 6.736266 -0.914960 -13.016644 12.429099 3.248826 -0.084081 -2.138406 11.650761 -26.484695 -14.692800 -154.771783 -69.616825 -174.356488 14.271278 -18.370849 -57.932856 -7.957676 -4.145506 -3.045752 1.314635 -23.561312 -3.744587 167.874608 -81.271485 164.041606 -8.734385 -16.437474 37.943138 5.567357 -45.106528 -7.851806 -12.339434 70.363475 -19.939445 4.312805 20.840538 8.415962 -0.792939 -16.117930 6.851584 -11.841738 -44.814231 -0.731452 30.183564 69.542953 29.571805 -14.800254 5.784721 -4.114675 -0.167334 0.255623 -0.076979
-220.285610 57.386268 134.713844 -174.673413 -29.717330 -1.947160 1.296453 21.595410 2.228072 0.086478 2.915718 0.284326 0.148365 4.746526 0.465610 0.813340 18.339968 1.921768 0.771142 12.151982 6.917292 -1.407673 -12.991265 12.865471 3.143504 -0.232480 -2.191661 11.396477 -26.323782 -14.362430 -146.259537 -71.352684 177.917964 14.492588 -18.242787 -58.238499 -7.941553 -4.320080 -3.029683 1.072735 -23.199177 -3.949744 176.253053 -83.976130 155.656083 -8.544973 -16.455019 37.942629 5.412868 -45.165565 -7.736490 -12.336644 70.313539 -19.896702 4.316220 20.868218 8.301416 -0.769376 -16.143561 6.858343 -11.835684 -44.851643 -0.677787 30.171955 69.541447 29.627101 -14.805519 5.759902 -4.129424 -0.156089 0.254772 -0.076929
-220.287128 57.398336 134.712251 -174.701986 -29.619746 -1.994906 1.312568 21.606900 2.272129 0.086477 2.931958 0.287579 0.148510 4.771476 0.470852 0.814147 18.380275 1.936971 0.541310 12.157970 7.092356 -1.915192 -12.941144 13.293424 3.068530 -0.378597 -2.261099 11.259183 -26.189122 -14.066943 -136.634014 -72.913718 168.888552 14.548168 -18.057704 -58.381172 -7.896947 -4.400935 -3.019597 0.656763 -22.943894 -4.184749 -157.992746 -86.113506 130.029627 -8.371770 -16.469745 37.983498 5.295381 -45.257550 -7.645599 -12.291050 70.279875 -19.836336 4.334108 20.874879 8.252493 -0.747606 -16.159570 6.840369 -11.830806 -44.926511 -0.626485 30.158183 69.535627 29.670329 -14.807727 5.742463 -4.133948 -0.159692 0.249527 -0.079722
